<?xml version="1.0" standalone="no"?>
<!DOCTYPE svg PUBLIC "-//W3C//DTD SVG 20010904//EN"
 "http://www.w3.org/TR/2001/REC-SVG-20010904/DTD/svg10.dtd">
<svg version="1.0" xmlns="http://www.w3.org/2000/svg"
 width="512.000000pt" height="512.000000pt" viewBox="0 0 512.000000 512.000000"
 preserveAspectRatio="xMidYMid meet">

<g transform="translate(0.000000,512.000000) scale(0.100000,-0.100000)"
fill="#000000" stroke="none">
<path d="M2160 4695 l0 -105 145 0 145 0 0 -250 0 -250 -145 0 -145 0 0 -105
0 -105 145 0 145 0 0 -250 0 -250 -145 0 -145 0 0 -105 0 -105 145 0 145 0 0
-250 0 -250 -250 0 -250 0 0 -105 0 -105 250 0 250 0 0 -255 0 -255 -145 0
-145 0 0 -100 0 -100 145 0 145 0 0 -255 0 -255 -145 0 -145 0 0 -100 0 -100
145 0 145 0 0 -255 0 -255 -145 0 -145 0 0 -98 0 -99 200 -6 c110 -3 290 -3
400 0 l200 6 0 99 0 98 -145 0 -145 0 0 255 0 255 145 0 145 0 0 100 0 100
-145 0 -145 0 0 255 0 255 145 0 145 0 0 100 0 100 -145 0 -145 0 0 255 0 255
250 0 250 0 0 105 0 105 -250 0 -250 0 0 250 0 250 145 0 145 0 0 105 0 105
-145 0 -145 0 0 250 0 250 145 0 145 0 0 105 0 105 -145 0 -145 0 0 250 0 250
145 0 145 0 0 105 0 105 -400 0 -400 0 0 -105z"/>
<path d="M1182 4387 l-72 -72 130 -130 130 -130 0 -182 0 -183 105 0 105 0 0
177 0 178 135 135 135 135 -75 75 -75 75 -110 -110 -110 -110 -108 108 c-59
59 -110 107 -112 107 -3 0 -38 -33 -78 -73z"/>
<path d="M3910 3875 l-75 -75 110 -110 110 -110 -110 -110 -110 -110 75 -75
75 -75 110 110 110 110 110 -110 110 -110 75 75 75 75 -110 110 -110 110 110
110 110 110 -75 75 -75 75 -110 -110 -110 -110 -110 110 -110 110 -75 -75z"/>
<path d="M530 2565 l0 -105 250 0 250 0 0 105 0 105 -250 0 -250 0 0 -105z"/>
<path d="M1240 2565 l0 -105 250 0 250 0 0 105 0 105 -250 0 -250 0 0 -105z"/>
<path d="M3380 2565 l0 -105 250 0 250 0 0 105 0 105 -250 0 -250 0 0 -105z"/>
<path d="M4090 2565 l0 -105 250 0 250 0 0 105 0 105 -250 0 -250 0 0 -105z"/>
<path d="M770 1741 l0 -101 140 0 c222 0 346 -34 475 -133 80 -60 139 -134
187 -233 49 -103 67 -200 68 -371 l0 -133 101 0 101 0 -5 188 c-5 217 -20 281
-93 423 -104 201 -267 341 -487 418 -101 35 -104 35 -294 39 l-193 4 0 -101z"/>
</g>
</svg>
